<?xml version="1.0" encoding="UTF-8"?><svg xmlns="http://www.w3.org/2000/svg" width="100" height="100" viewBox="0 0 100 100"><defs><style>.cls-1{fill:#444;}</style></defs><path class="cls-1" d="M37.55,74c-3.3-2-5.87-4.8-7.7-8.4-1.83-3.6-2.75-7.8-2.75-12.6s.83-8.32,2.5-11.35c1.67-3.03,3.92-5.3,6.75-6.8,2.83-1.5,6.02-2.25,9.55-2.25,2.87,0,5.2.6,7,1.8,1.8,1.2,2.7,2.53,2.7,4,0,.33-.03.63-.1.9-.07.27-.2.53-.4.8-.93-.53-1.95-.93-3.05-1.2-1.1-.27-2.32-.4-3.65-.4-2.13,0-4,.52-5.6,1.55-1.6,1.03-2.85,2.7-3.75,5s-1.35,5.28-1.35,8.95c0,3.73.45,6.92,1.35,9.55.9,2.63,2.22,4.65,3.95,6.05,1.73,1.4,3.77,2.1,6.1,2.1,2.6,0,4.85-.73,6.75-2.2,1.9-1.47,3.37-3.73,4.4-6.8,1.03-3.07,1.55-7,1.55-11.8,0-5.47-.72-10.5-2.15-15.1-1.43-4.6-3.37-8.68-5.8-12.25-2.43-3.57-5.15-6.58-8.15-9.05-3-2.47-6.1-4.3-9.3-5.5V3.6c5.13,1.67,9.9,3.95,14.3,6.85,4.4,2.9,8.27,6.35,11.6,10.35,3.33,4,5.93,8.48,7.8,13.45,1.87,4.96,2.8,10.35,2.8,16.15,0,6.27-1.05,11.35-3.15,15.25-2.1,3.9-4.93,6.77-8.5,8.6-3.57,1.83-7.62,2.75-12.15,2.75-4.4,0-8.25-1-11.55-3Z"/></svg>