<?xml version="1.0" encoding="UTF-8"?><svg xmlns="http://www.w3.org/2000/svg" width="100" height="100" viewBox="0 0 100 100"><defs><style>.cls-1{fill:#fff;}</style></defs><path class="cls-1" d="M36.41,58.09c-.24-7.88,4.15-12.06,10.6-15.94,8.97-4.44,14.3-5.57,19.9-11.15,4.57-4.17,4.74-13.81,1.4-19.15-5.21-9.55-21.4-10.07-29.85-5.75-8.44,4.15-11.33,14.9-7.5,22.9,2.35,4.82,6.55,7.95,11.25,10.75-4.96,2.52-10.37,5.4-13.2,10.2-4.73,8.59-.95,20.27,8.15,24.45,10.37,4.74,26.95,3.56,33.1-7.3,2.63-4.42,3.83-11.35,1.6-16.4-1.76-4.48-6.78-7.5-10.95-4.35,3.99,7.06,4.07,18.16-2.95,23.4-4.03,3.31-12.44,2.28-16.28-.71-3.66-2.94-5.27-7.28-5.27-10.95ZM40.21,26.45c-2.49-4.22-1.83-11.3,1.5-14.8,2.97-3.9,11.41-4.48,15.3-1.6,5.16,3.54,5.41,11.32,3.9,16.65-1.38,4.29-4.35,6.39-8.7,8.65-4.99-2.47-9.38-4.58-12-8.9Z"/></svg>