<?xml version="1.0" encoding="UTF-8"?><svg xmlns="http://www.w3.org/2000/svg" width="100" height="100" viewBox="0 0 100 100"><defs><style>.cls-1{fill:#fff;}</style></defs><path class="cls-1" d="M53.7,4.6v4.2h.3c1.27,0,2.4.15,3.4.45,1,.3,1.82.93,2.45,1.9.63.97.95,2.52.95,4.65v1.14c-.1,1.74-.46,3.83-1.2,5.36-1.09,2.26-1.98,3.37-3.75,4.87-1.77,1.5-4.15,2.25-7.15,2.25-4.07,0-6.92-1.2-8.55-3.6-1.62-2.39-2.44-5.74-2.45-10.05,0-2.12.33-3.66,1-4.62.67-.97,1.55-1.6,2.65-1.9,1.1-.3,2.32-.45,3.65-.45h.3v-4.2h-25v4.2h.3c1.4,0,2.68.15,3.85.45,1.17.3,2.1.95,2.8,1.95s1.05,2.53,1.05,4.6l.02,1.23c.12,6.43,1.58,11.16,4.43,14.13,2.97,3.1,7.08,4.65,12.35,4.65,2.13,0,4.13-.24,6-.7,1.87-.47,3.58-1.35,5.15-2.65,1.35-1.12,2.64-2.7,3.86-4.74-1.54,5.54-5.54,8.12-9.95,10.78-8.97,4.44-14.31,5.57-19.9,11.15-4.58,4.17-4.75,13.81-1.4,19.15,5.2,9.55,21.4,10.07,29.85,5.75,8.44-4.15,11.33-14.9,7.5-22.9-2.35-4.82-6.55-7.95-11.25-10.75,4.95-2.52,10.36-5.4,13.2-10.2.49-.89.89-1.82,1.2-2.77.57-1.73.84-5.53.84-7.33v-4.8c0-2.13.38-3.68,1.15-4.65.77-.97,1.77-1.6,3-1.9,1.23-.3,2.58-.45,4.05-.45h.3v-4.2h-25ZM56.96,54.2c2.48,4.22,1.83,11.3-1.5,14.8-2.97,3.9-11.42,4.48-15.3,1.6-5.16-3.54-5.42-11.32-3.9-16.65,1.38-4.29,4.35-6.39,8.7-8.65,4.99,2.47,9.38,4.58,12,8.9Z"/></svg>