<?xml version="1.0" encoding="UTF-8"?><svg xmlns="http://www.w3.org/2000/svg" width="100" height="100" viewBox="0 0 100 100"><defs><style>.cls-1{fill:#444;}</style></defs><path class="cls-1" d="M15.81,21.4v.4c0-.13,0-.27,0-.4h0Z"/><path class="cls-1" d="M78.43,22.4v19.71c-2.15-.87-4.6-1.32-7.4-1.32-2.13,0-4.13.24-6,.7-1.87.47-3.58,1.35-5.15,2.65-1.53,1.27-2.98,3.13-4.35,5.58-3.04-6.03-7.94-9.5-12.95-12.13,3.73-1.72,6.84-3.46,10.02-6.63,4.58-4.17,4.75-13.81,1.4-19.15C48.8,2.25,32.6,1.73,24.15,6.05c-8.44,4.15-11.33,14.9-7.5,22.9,2.35,4.82,6.55,7.95,11.25,10.75-4.95,2.52-10.36,5.4-13.2,10.2-.49.89-.89,1.82-1.2,2.77-.57,1.73-.84,5.53-.84,7.33v4.6c0,2.07-.33,3.62-1,4.65-.67,1.03-1.57,1.72-2.7,2.05-1.13.33-2.47.5-4,.5h-1.3v4.2h26.4v-4.21h-.5c-1.47,0-2.77-.16-3.9-.5-1.13-.33-2.02-1.01-2.65-2.04-.63-1.04-.95-2.59-.95-4.65v-6.29c0-9.55,4.98-12.8,10.64-16.21.05-.02.1-.05.15-.07,7.42,3.12,16.38,6.77,16.38,22.57v11.4h17.4v-4.21h-.5c-1.47,0-2.77-.16-3.9-.5-1.13-.33-2.02-1.01-2.65-2.04-.63-1.04-.95-2.59-.95-4.65,0-4.27-.55-7.86-1.5-10.92.76-1.69,1.81-3.11,3.15-4.24,1.77-1.5,4.15-2.25,7.15-2.25,4.07,0,6.92,1.2,8.55,3.6,1.63,2.4,2.45,5.77,2.45,10.1v15.11h17.4v-4.21h-.5c-1.47,0-2.77-.16-3.9-.5-1.13-.33-2.02-1.01-2.65-2.04-.63-1.04-.95-2.59-.95-4.65v-1.4h0v-29.8c0-2,.38-3.48,1.15-4.45.77-.97,1.77-1.6,3-1.9,1.23-.3,2.58-.45,4.05-.45h.3v-4.2h-17.9ZM25.9,26.4c-2.48-4.22-1.83-11.3,1.5-14.8,2.97-3.9,11.42-4.48,15.3-1.6,5.16,3.54,5.42,11.32,3.9,16.65-1.38,4.29-4.35,6.39-8.7,8.65-4.99-2.47-9.38-4.58-12-8.9Z"/></svg>