<?xml version="1.0" encoding="UTF-8"?><svg xmlns="http://www.w3.org/2000/svg" width="100" height="100" viewBox="0 0 100 100"><defs><style>.cls-1{fill:#111;}</style></defs><path class="cls-1" d="M20.55,76v-4.2h.8c1.53,0,2.92-.17,4.15-.5,1.23-.33,2.22-1.02,2.95-2.05.73-1.03,1.1-2.58,1.1-4.65V23.4c0-6.8,1.37-11.82,4.1-15.05,2.73-3.23,6.93-4.85,12.6-4.85,2.67,0,4.85.37,6.55,1.1,1.7.73,2.98,1.7,3.85,2.9.87,1.2,1.3,2.5,1.3,3.9,0,1.07-.27,2.03-.8,2.9-.53.87-1.37,1.55-2.5,2.05-1.13.5-2.6.75-4.4.75,0-1.33-.13-2.7-.4-4.1-.27-1.4-.78-2.57-1.55-3.5-.77-.93-1.85-1.4-3.25-1.4-2.4,0-4.02.82-4.85,2.45-.83,1.63-1.25,4.55-1.25,8.75v2.7c0,1.2-.03,2.45-.1,3.75-.07,1.3-.17,2.88-.3,4.75h.5c1-2,2.22-3.68,3.65-5.05,1.43-1.37,3.07-2.38,4.9-3.05,1.83-.67,3.88-1,6.15-1,5.73,0,10.12,1.55,13.15,4.65,3.03,3.1,4.55,8.08,4.55,14.95v23.6c0,2.07.32,3.62.95,4.65.63,1.03,1.53,1.72,2.7,2.05,1.17.33,2.48.5,3.95.5h.4v4.2h-17.4v-34.5c0-4.33-.82-7.7-2.45-10.1-1.63-2.4-4.48-3.6-8.55-3.6-2.73,0-5,.67-6.8,2-1.8,1.33-3.13,3.22-4,5.65-.87,2.43-1.3,5.28-1.3,8.55v21.1c0,1.93.37,3.38,1.1,4.35.73.97,1.72,1.6,2.95,1.9,1.23.3,2.58.45,4.05.45h.4v4.2h-26.9Z"/></svg>