<?xml version="1.0" encoding="UTF-8"?><svg xmlns="http://www.w3.org/2000/svg" width="100" height="100" viewBox="0 0 100 100"><defs><style>.cls-1{fill:#444;}</style></defs><path class="cls-1" d="M77.58,71.81c-1.47,0-2.77-.16-3.9-.5-1.13-.33-2.02-1.01-2.65-2.04-.63-1.04-.95-4.86-.95-4.86,0-6.86-1.48-11.85-4.45-14.95-2.97-3.1-7.08-4.65-12.35-4.65-2.13,0-4.13.24-6,.7-1.87.47-3.58,1.35-5.15,2.65-1.35,1.12-2.64,2.7-3.86,4.74,1.54-5.54,5.54-8.12,9.95-10.78,8.97-4.44,14.31-5.57,19.9-11.15,4.58-4.17,4.75-13.81,1.4-19.15-5.2-9.55-21.4-10.07-29.85-5.75-8.44,4.15-11.33,14.9-7.5,22.9,2.35,4.82,6.55,7.95,11.25,10.75-4.95,2.52-10.36,5.4-13.2,10.2-.49.89-.89,1.82-1.2,2.77-.57,1.73-.84,5.53-.84,7.33v5.1c0,1.93-.38,3.38-1.15,4.35-.77.97-1.77,1.6-3,1.9-1.23.3-2.58.45-4.05.45h-1.3v4.2h26.9v-4.21h-.5c-1.47,0-2.77-.16-3.9-.5-1.13-.33-2.02-1.01-2.65-2.04-.59-.98-.95-2.94-.98-4.81.02-1.85.38-4.37,1.23-6.13,1.09-2.26,1.98-3.37,3.75-4.87,1.77-1.5,4.15-2.25,7.15-2.25,4.07,0,6.92,1.2,8.55,3.6,1.63,2.4,2.45,5.77,2.45,10.1v11.11h17.4v-4.21h-.5ZM41.42,26.42c-2.48-4.22-1.83-11.3,1.5-14.8,2.97-3.9,11.42-4.48,15.3-1.6,5.16,3.54,5.42,11.32,3.9,16.65-1.38,4.29-4.35,6.39-8.7,8.65-4.99-2.47-9.38-4.58-12-8.9Z"/></svg>