<?xml version="1.0" encoding="UTF-8"?><svg xmlns="http://www.w3.org/2000/svg" width="100" height="100" viewBox="0 0 100 100"><defs><style>.cls-1{fill:#fff;}</style></defs><path class="cls-1" d="M74.76,71.8c-1.47,0-2.83-.17-4.1-.5-1.27-.33-2.27-1.02-3-2.05-.73-1.03-1.1-2.58-1.1-4.65V21.5c0-4-.88-7.33-2.65-10-1.77-2.67-4.12-4.67-7.05-6-2.93-1.33-6.17-2-9.7-2-3.13,0-6.08.4-8.85,1.2-2.77.8-5.02,2-6.75,3.6-1.73,1.6-2.6,3.63-2.6,6.1s.9,4.42,2.7,6.05c1.8,1.63,4.12,3,6.95,4.1,2.83,1.1,5.83,2.1,9,3,3.17.9,6.12,1.82,8.85,2.75v12.12c-.33-.27-.67-.56-1.02-.88-1.54-1.38-3.48-3.07-5.81-5.07-2.09-1.86-3.97-3.44-5.67-4.74-1.7-1.31-3.45-2.2-5.27-2.68-1.82-.48-3.98-.38-6.5.29-1.8.48-3.25,1.13-4.34,1.94-1.09.81-1.84,1.75-2.24,2.83-.4,1.07-.45,2.19-.14,3.35.48,1.8,1.32,3.08,2.53,3.83,1.2.75,2.45,1.09,3.74,1.02-.14-1.55.08-2.97.67-4.27.59-1.3,1.68-2.16,3.29-2.59,1.61-.43,3.24-.21,4.89.66,1.65.87,3.6,2.31,5.87,4.33,2.43,2.11,4.39,3.71,5.89,4.79.14.1.27.19.41.28h0c.17.13.33.28.5.4-3.07.13-5.65.93-7.75,2.4-2.1,1.47-3.92,3.57-5.45,6.3l-5.2,9.2c-1,1.87-2.03,3.38-3.1,4.55-1.07,1.17-2.2,2.03-3.4,2.6-1.2.57-2.57.85-4.1.85h-.3v4.2h3.5c3.4,0,6.1-.25,8.1-.75s3.65-1.42,4.95-2.75c1.3-1.33,2.62-3.3,3.95-5.9l4.9-9.7c1-1.93,2.08-3.38,3.25-4.35,1.06-.88,2.36-1.48,3.86-1.84v13.89c0,2.07-.37,3.62-1.1,4.65-.73,1.03-1.72,1.72-2.95,2.05-1.23.33-2.62.5-4.15.5h-1.3v4.2h29.1v-4.2h-1.3ZM56.46,25.9c-2.33-.6-4.55-1.27-6.65-2-2.1-.73-3.95-1.57-5.55-2.5-1.6-.93-2.87-1.97-3.8-3.1-.93-1.13-1.4-2.43-1.4-3.9,0-1.93.72-3.4,2.15-4.4,1.43-1,3.32-1.5,5.65-1.5,1.53,0,3.05.3,4.55.9s2.72,1.6,3.65,3c.93,1.4,1.4,3.3,1.4,5.7v7.8Z"/></svg>