<?xml version="1.0" encoding="UTF-8"?><svg xmlns="http://www.w3.org/2000/svg" width="100" height="100" viewBox="0 0 100 100"><defs><style>.cls-1{fill:#fff;}</style></defs><path class="cls-1" d="M81.24,71.79c-1.47,0-2.77-.16-3.9-.5-1.13-.33-2.02-1.01-2.65-2.04-.63-1.04-.95-2.59-.95-4.65,0-16.24-7.9-22.74-16.06-27.01-1.56-.83-3.14-1.57-4.67-2.29-4.99-2.47-9.38-4.58-12-8.9-1.01-1.72-1.5-3.92-1.5-6.16V4.6h-18.9v4.2h1.3c1.47,0,2.82.15,4.05.45,1.23.3,2.23.93,3,1.9.77.97,1.15,2.45,1.15,4.45v.67h0v4.66h0c-.09,2.75.45,5.52,1.65,8.02,2.35,4.82,6.55,7.95,11.25,10.75-4.95,2.52-10.36,5.4-13.2,10.2-.49.89-.89,1.82-1.2,2.77-.57,1.73-.84,5.53-.84,7.33v3.56h0v1.04c0,2.07-.37,3.62-1.1,4.65-.73,1.03-1.72,1.72-2.95,2.05-1.23.33-2.62.5-4.15.5h-1.3v4.2h28.4v-4.2h-1.3c-.07,0-.13,0-.2,0h0s-.14,0-.14,0c-1.34-.02-2.59-.18-3.76-.49-1.27-.33-2.27-1.02-3-2.05-.73-1.03-1.1-2.58-1.1-4.65,0,0,0,0,0,0v-6.29c0-9.55,4.98-12.8,10.64-16.21.05-.02.09-.05.14-.07,7.41,3.12,16.39,6.77,16.39,22.57v11.4h17.4v-4.21h-.5Z"/><path class="cls-1" d="M65.33,32.86c-5.13,0-9.13-1.42-12-4.25-2.87-2.83-4.3-7.08-4.3-12.75s1.38-9.98,4.15-12.75c2.77-2.77,6.88-4.15,12.35-4.15,5,0,8.95,1.38,11.85,4.15,2.9,2.77,4.35,7.02,4.35,12.75s-1.4,9.92-4.2,12.75c-2.8,2.83-6.87,4.25-12.2,4.25ZM65.44,28.86c2.8,0,4.78-1.1,5.95-3.3,1.17-2.2,1.75-5.43,1.75-9.7s-.6-7.45-1.8-9.55c-1.2-2.1-3.2-3.15-6-3.15s-4.77,1.05-5.9,3.15c-1.13,2.1-1.7,5.28-1.7,9.55s.57,7.5,1.7,9.7c1.13,2.2,3.13,3.3,6,3.3Z"/></svg>