<?xml version="1.0" encoding="UTF-8"?><svg xmlns="http://www.w3.org/2000/svg" width="100" height="100" viewBox="0 0 100 100"><defs><style>.cls-1{fill:#fff;}</style></defs><path class="cls-1" d="M92.55,44.6c1.63-1.6,2.45-3.63,2.45-6.1s-.78-4.4-2.35-6c-1.57-1.6-4.22-2.73-7.95-3.4v-.3c3.8-.67,6.63-2.03,8.5-4.1,1.87-2.07,2.8-4.57,2.8-7.5s-.97-5.43-2.9-7.5c-1.93-2.07-4.58-3.62-7.95-4.65-3.37-1.03-7.22-1.55-11.55-1.55,0,0,0,0,0,0h-37.99c-7.07,0-14.95,1.52-19.65,4.55-4.7,3.03-8.2,7.28-10.5,12.75-2.3,5.47-3.45,11.9-3.45,19.3s1.15,13.87,3.45,19.4c2.3,5.53,5.78,9.83,10.45,12.9,4.67,3.07,10.53,4.6,17.6,4.6s12.43-1.53,17.1-4.6c4.67-3.07,8.22-7.35,10.65-12.85s3.65-11.95,3.65-19.35-1.22-13.85-3.65-19.35c-2.27-5.13-5.5-9.17-9.68-12.15h22.03c3.73,0,6.65.77,8.75,2.3,2.1,1.53,3.15,3.63,3.15,6.3,0,3.13-1.03,5.43-3.1,6.9-2.07,1.47-5,2.2-8.8,2.2h-4.6v5.3h4.7c3.67,0,6.43.6,8.3,1.8,1.87,1.2,2.8,2.87,2.8,5,0,2.53-1.07,4.28-3.2,5.25-2.13.97-4.97,1.45-8.5,1.45h-4.1v5.3h6.1c1.93,0,3.55.17,4.85.5,1.3.33,2.28.85,2.95,1.55.67.7,1,1.58,1,2.65,0,2.13-.95,3.77-2.85,4.9-1.9,1.13-4.02,2.23-6.35,3.3-2.2,1-4.2,2.17-6,3.5-1.8,1.33-2.7,3.17-2.7,5.5,0,1.33.5,2.43,1.5,3.3,1,.87,2.37,1.3,4.1,1.3.73,0,1.43-.1,2.1-.3.67-.2,1.23-.5,1.7-.9-.27-.53-.42-.98-.45-1.35-.03-.37-.05-.72-.05-1.05,0-1.13.58-2.1,1.75-2.9,1.17-.8,2.58-1.53,4.25-2.2,2.07-.8,4.12-1.75,6.15-2.85,2.03-1.1,3.72-2.38,5.05-3.85,1.33-1.47,2-3.23,2-5.3s-.7-3.87-2.1-5.4c-1.4-1.54-3.83-2.47-7.3-2.8v-.3c3.6-.53,6.22-1.6,7.85-3.2ZM53.8,40.2c0,6.6-.65,12.23-1.95,16.9-1.3,4.67-3.43,8.25-6.4,10.75-2.97,2.5-6.95,3.75-11.95,3.75s-8.9-1.25-11.9-3.75-5.17-6.08-6.5-10.75c-1.33-4.67-2-10.3-2-16.9,0-9.93,1.55-17.63,4.65-23.1,3.1-5.47,8.38-8.2,15.85-8.2,4.93,0,8.88,1.23,11.85,3.7,2.97,2.47,5.1,6.03,6.4,10.7,1.3,4.67,1.95,10.3,1.95,16.9Z"/></svg>