<?xml version="1.0" encoding="UTF-8"?><svg xmlns="http://www.w3.org/2000/svg" width="100" height="100" viewBox="0 0 100 100"><defs><style>.cls-1{fill:#444;}</style></defs><path class="cls-1" d="M69.52,11.85c-5.2-9.55-21.4-10.07-29.85-5.75-8.44,4.15-11.33,14.9-7.5,22.9,2.35,4.82,6.55,7.95,11.25,10.75-4.95,2.52-10.36,5.4-13.2,10.2-.49.89-.89,1.82-1.2,2.77-.57,1.73-.84,5.53-.84,7.33v16h17.4v-4.21h-.5c-1.47,0-2.77-.16-3.9-.5-1.13-.33-2.02-1.01-2.65-2.04-.63-1.04-.95-2.59-.95-4.65v-6.29c0-9.55,4.98-12.8,10.64-16.21,8.97-4.44,14.31-5.57,19.9-11.15,4.58-4.17,4.75-13.81,1.4-19.15ZM62.12,26.7c-1.38,4.29-4.35,6.39-8.7,8.65-4.99-2.47-9.38-4.58-12-8.9-2.48-4.22-1.83-11.3,1.5-14.8,2.97-3.9,11.42-4.48,15.3-1.6,5.16,3.54,5.42,11.32,3.9,16.65Z"/></svg>