<?xml version="1.0" encoding="UTF-8"?><svg xmlns="http://www.w3.org/2000/svg" width="100" height="100" viewBox="0 0 100 100"><defs><style>.cls-1{fill:#444;}</style></defs><path class="cls-1" d="M49.8,3.5c4.93,0,9.2.93,12.8,2.8,3.6,1.87,6.37,4.7,8.3,8.5,1.93,3.8,2.9,8.6,2.9,14.4s-.87,10.52-2.6,14.35c-1.73,3.83-4.2,6.7-7.4,8.6-3.2,1.9-7,2.85-11.4,2.85-4,0-7.28-.75-9.85-2.25s-4.62-3.45-6.15-5.85h-.6c.2,1.67.33,3.48.4,5.45.07,1.97.1,3.62.1,4.95v3.4c0,2.33.52,4.32,1.55,5.95,1.03,1.63,2.48,2.9,4.35,3.8,1.87.9,4.07,1.35,6.6,1.35,3.53,0,6.37-.82,8.5-2.45,2.13-1.63,3.2-3.55,3.2-5.75,0-.6-.03-1.13-.1-1.6-.07-.47-.17-.93-.3-1.4.73-.27,1.5-.47,2.3-.6.8-.13,1.5-.2,2.1-.2,2,0,3.48.53,4.45,1.6.97,1.07,1.45,2.33,1.45,3.8,0,2.33-1.03,4.38-3.1,6.15-2.07,1.77-4.75,3.15-8.05,4.15-3.3,1-6.78,1.5-10.45,1.5-4.87,0-8.97-.8-12.3-2.4-3.33-1.6-5.88-3.85-7.65-6.75-1.77-2.9-2.65-6.38-2.65-10.45v-27.8c0-5.93.93-10.83,2.8-14.7,1.87-3.87,4.57-6.73,8.1-8.6,3.53-1.87,7.77-2.8,12.7-2.8ZM50,8.8c-5.13,0-8.7,1.67-10.7,5-2,3.33-3,8.43-3,15.3,0,3.93.42,7.35,1.25,10.25.83,2.9,2.27,5.15,4.3,6.75,2.03,1.6,4.85,2.4,8.45,2.4,4.47,0,7.7-1.7,9.7-5.1,2-3.4,3-8.2,3-14.4,0-6.73-1-11.78-3-15.15-2-3.37-5.33-5.05-10-5.05Z"/></svg>