<?xml version="1.0" encoding="UTF-8"?><svg xmlns="http://www.w3.org/2000/svg" width="100" height="100" viewBox="0 0 100 100"><defs><style>.cls-1{fill:#444;}</style></defs><path class="cls-1" d="M75.06,55.49c-.6-5.49-5.2-10.72-9.59-13.4-2.93-1.79-5.67-3.13-8.06-4.24h0s0,0,0,0c3.92-2.46,7.43-4.84,9.46-6.84,4.73-4.66,4.74-13.81,1.4-19.15-5.21-9.55-21.4-10.07-29.85-5.75-8.44,4.15-11.33,14.9-7.5,22.9,2.35,4.82,5.56,7.35,10.26,10.15-2.89.74-4.28,1.52-6.67,2.93-4.49,2.51-8.99,7.91-9.59,13.4-.71,4.77,2.13,9.89,7.31,9.24.06-6.67,2.68-12.61,9.94-17.47,1.97-1.32,4.34-2.78,6.84-4.29,0,0,2.18.13,8.79,4.29,6.61,4.15,9.88,10.8,9.94,17.47,5.18.64,8.02-4.48,7.31-9.24ZM40.18,26.45c-2.49-4.22-1.83-11.3,1.5-14.8,2.97-3.9,11.41-4.48,15.3-1.6,5.16,3.54,5.41,11.32,3.9,16.65-1.38,4.29-4.35,6.39-8.7,8.65-4.99-2.47-9.38-4.58-12-8.9Z"/><path class="cls-1" d="M50.19,62.9c5.2,0,9.28.78,12.25,2.35,2.97,1.57,4.45,3.68,4.45,6.35,0,1.73-.7,3.07-2.1,4-1.4.93-3.43,1.4-6.1,1.4,0-3.2-.67-5.62-2-7.25-1.33-1.63-3.5-2.45-6.5-2.45s-5.33.82-6.6,2.45c-1.27,1.63-1.9,4.05-1.9,7.25-2.73,0-4.78-.45-6.15-1.35-1.37-.9-2.05-2.25-2.05-4.05,0-2.67,1.48-4.78,4.45-6.35,2.97-1.57,7.05-2.35,12.25-2.35Z"/></svg>