<?xml version="1.0" encoding="UTF-8"?><svg xmlns="http://www.w3.org/2000/svg" width="100" height="100" viewBox="0 0 100 100"><defs><style>.cls-1{fill:#444;}</style></defs><path class="cls-1" d="M75,6.35c-2.83-1.9-6.55-2.85-11.15-2.85-2,0-3.92.27-5.75.8-1.83.53-3.42,1.4-4.75,2.6-1.33,1.2-2.27,2.8-2.8,4.8h-.4c-.53-2-1.45-3.6-2.75-4.8-1.3-1.2-2.85-2.07-4.65-2.6-1.8-.53-3.67-.8-5.6-.8-3,0-5.75.6-8.25,1.8s-4.48,2.98-5.95,5.35c-1.47,2.37-2.2,5.35-2.2,8.95,0,2.33.69,4.29,1.37,5.91.84,2,3.38,5.03,5.32,6.89,2.09,2,4.58,3.7,7.05,5.49s5.43,3.47,8.76,5.01c-4.07,2-7.33,4.22-9.8,6.65-2.47,2.43-3.7,5.85-3.7,10.25,0,3.33.77,6.3,2.3,8.9,1.54,2.6,3.77,4.63,6.7,6.1,2.93,1.47,6.5,2.2,10.7,2.2,5.13,0,9.28-.85,12.45-2.55,3.17-1.7,5.48-3.92,6.95-6.65,1.47-2.73,2.2-5.63,2.2-8.7,0-2.8-.55-5.32-1.65-7.55-1.1-2.23-2.62-4.22-4.55-5.95-1.93-1.73-4.17-3.33-6.7-4.8l-4.8-2.4c-4.33-1.87-7.78-3.65-10.35-5.35-2.57-1.7-7.99-4.59-10.58-9.5-1.49-2.83-1.16-5.58-1.16-6.45,0-2.73.6-4.95,1.8-6.65,1.2-1.7,3.03-2.55,5.5-2.55,1.73,0,3.12.43,4.15,1.3,1.03.87,1.78,1.98,2.25,3.35.47,1.37.7,2.78.7,4.25v3.5h9.4v-3.4c0-1.53.2-2.98.6-4.35.4-1.37,1.1-2.5,2.1-3.4,1-.9,2.43-1.35,4.3-1.35,2.13,0,3.83.62,5.1,1.85,1.27,1.23,1.9,3.15,1.9,5.75,0,1.47-.12,2.75-.35,3.85-.23,1.1-.45,1.92-.65,2.45.6.2,1.22.35,1.85.45.63.1,1.35.15,2.15.15,2.13,0,3.87-.68,5.2-2.05,1.33-1.37,2-3.28,2-5.75,0-3.53-1.42-6.25-4.25-8.15ZM55.65,49.4c2,1.4,3.5,2.97,4.5,4.7,1,1.73,1.5,3.8,1.5,6.2,0,3.47-1,6.33-3,8.6-2,2.27-4.87,3.4-8.6,3.4-2.8,0-5.03-.6-6.7-1.8-1.67-1.2-2.87-2.73-3.6-4.6-.73-1.87-1.1-3.83-1.1-5.9,0-2.33.27-4.38.8-6.15.53-1.77,1.48-3.33,2.85-4.7,1.37-1.37,3.32-2.68,5.85-3.95,3,1.4,5.5,2.8,7.5,4.2Z"/></svg>