<?xml version="1.0" encoding="UTF-8"?><svg xmlns="http://www.w3.org/2000/svg" width="100" height="100" viewBox="0 0 100 100"><defs><style>.cls-1{fill:#fff;}</style></defs><path class="cls-1" d="M79.25,66c0-2.47-.67-4.38-2-5.75-1.33-1.37-3.07-2.05-5.2-2.05-.8,0-1.52.05-2.15.15-.63.1-1.25.25-1.85.45.2.53.42,1.35.65,2.45.23,1.1.35,2.38.35,3.85,0,2.6-.63,4.52-1.9,5.75-1.27,1.23-2.97,1.85-5.1,1.85-1.87,0-3.3-.45-4.3-1.35-1-.9-1.7-2.03-2.1-3.4-.4-1.37-.6-2.82-.6-4.35v-3.4s-9.4,0-9.4,0v3.5c0,1.47-.23,2.88-.7,4.25-.47,1.37-1.22,2.48-2.25,3.35-1.03.87-2.42,1.3-4.15,1.3-2.47,0-4.3-.85-5.5-2.55-1.2-1.7-1.8-3.92-1.8-6.65,0-.87-.33-3.62,1.16-6.45,2.59-4.91,8.02-7.8,10.58-9.5,2.57-1.7,6.02-3.48,10.35-5.35l4.8-2.4c2.53-1.47,4.77-3.07,6.7-4.8,1.93-1.73,3.45-3.72,4.55-5.95,1.1-2.23,1.65-4.75,1.65-7.55,0-3.07-.73-5.97-2.2-8.7-1.47-2.73-3.78-4.95-6.95-6.65-3.17-1.7-7.32-2.55-12.45-2.55-4.2,0-7.77.73-10.7,2.2-2.93,1.47-5.17,3.5-6.7,6.1-1.53,2.6-2.3,5.57-2.3,8.9,0,4.4,1.23,7.82,3.7,10.25,2.47,2.43,5.73,4.65,9.8,6.65-3.33,1.53-6.25,3.2-8.76,5.01s-4.97,3.49-7.05,5.49c-1.94,1.86-4.48,4.89-5.32,6.89-.68,1.62-1.37,3.57-1.37,5.91,0,3.6.73,6.58,2.2,8.95,1.47,2.37,3.45,4.15,5.95,5.35s5.25,1.8,8.25,1.8c1.93,0,3.8-.27,5.6-.8,1.8-.53,3.35-1.4,4.65-2.6,1.3-1.2,2.22-2.8,2.75-4.8h.4c.53,2,1.47,3.6,2.8,4.8,1.33,1.2,2.92,2.07,4.75,2.6,1.83.53,3.75.8,5.75.8,4.6,0,8.32-.95,11.15-2.85,2.83-1.9,4.25-4.62,4.25-8.15ZM48.15,35.3c-2.53-1.27-4.48-2.58-5.85-3.95-1.37-1.37-2.32-2.93-2.85-4.7-.53-1.77-.8-3.82-.8-6.15,0-2.07.37-4.03,1.1-5.9.73-1.87,1.93-3.4,3.6-4.6,1.67-1.2,3.9-1.8,6.7-1.8,3.73,0,6.6,1.13,8.6,3.4,2,2.27,3,5.13,3,8.6,0,2.4-.5,4.47-1.5,6.2-1,1.73-2.5,3.3-4.5,4.7-2,1.4-4.5,2.8-7.5,4.2Z"/></svg>