<?xml version="1.0" encoding="UTF-8"?><svg xmlns="http://www.w3.org/2000/svg" width="100" height="100" viewBox="0 0 100 100"><defs><style>.cls-1{fill:#fff;}</style></defs><path class="cls-1" d="M49.8,77.11c-7.53,0-13.45-2.15-17.75-6.45-4.3-4.3-6.45-10.75-6.45-19.35,0-7.47,1.82-13.37,5.45-17.7,3.63-4.33,8.68-6.93,15.15-7.8,2.93-.4,5.18-1.08,6.75-2.05,1.57-.97,2.62-2.1,3.15-3.4.53-1.3.8-2.72.8-4.25,0-2.67-.72-4.67-2.15-6-1.43-1.33-3.18-2-5.25-2s-3.83.62-5.3,1.85c-1.47,1.23-2.2,2.88-2.2,4.95,0,1.13.12,2.05.35,2.75.23.7.45,1.28.65,1.75-.67.33-1.38.62-2.15.85-.77.23-1.65.35-2.65.35-1.67,0-3.22-.47-4.65-1.4-1.43-.93-2.15-2.57-2.15-4.9,0-1.73.77-3.42,2.3-5.05,1.53-1.63,3.67-2.98,6.4-4.05,2.73-1.07,5.9-1.6,9.5-1.6,3.8,0,7.05.57,9.75,1.7s4.75,2.65,6.15,4.55c1.4,1.9,2.1,4.05,2.1,6.45,0,1.93-.78,3.88-2.35,5.85-1.57,1.97-4.08,3.28-7.55,3.95v.3c5.4,1.13,9.53,3.8,12.4,8,2.87,4.2,4.3,9.83,4.3,16.9,0,5.8-.93,10.6-2.8,14.4-1.87,3.8-4.63,6.65-8.3,8.55-3.67,1.9-8.17,2.85-13.5,2.85ZM50.1,71.81c3.4,0,6.08-.78,8.05-2.35,1.97-1.57,3.37-3.88,4.2-6.95.83-3.07,1.25-6.8,1.25-11.2,0-6.67-.98-11.78-2.95-15.35-1.97-3.57-5.52-5.35-10.65-5.35s-8.68,1.78-10.65,5.35c-1.97,3.57-2.95,8.68-2.95,15.35s1,11.75,3,15.25,5.57,5.25,10.7,5.25Z"/></svg>