<?xml version="1.0" encoding="UTF-8"?><svg xmlns="http://www.w3.org/2000/svg" width="100" height="100" viewBox="0 0 100 100"><defs><style>.cls-1{fill:#fff;}</style></defs><path class="cls-1" d="M28.4,95.9c-.87-.53-1.57-1.2-2.1-2-.53-.8-.8-1.73-.8-2.8,0-1.93.65-3.58,1.95-4.95,1.3-1.37,3.52-2.05,6.65-2.05,2.07,0,4,.27,5.8.8,1.8.53,3.53,1.17,5.2,1.9,1.67.73,3.4,1.37,5.2,1.9,1.8.53,3.77.8,5.9.8,1.53,0,2.87-.23,4-.7,1.13-.47,1.98-1.18,2.55-2.15.57-.97.85-2.12.85-3.45,0-2.07-.75-3.72-2.25-4.95-1.5-1.23-4.18-1.98-8.05-2.25-3.73-.27-7.22-.77-10.45-1.5-3.23-.73-6.07-1.83-8.5-3.3-2.43-1.47-4.35-3.47-5.75-6-1.4-2.53-2.1-5.73-2.1-9.6,0-3.2.58-5.87,1.75-8,1.17-2.13,2.67-3.83,4.5-5.1,1.83-1.27,3.8-2.22,5.9-2.85,2.1-.63,4.08-1.05,5.95-1.25-3.07-.93-5.8-2.13-8.2-3.6-2.4-1.47-4.32-3.37-5.75-5.7-1.43-2.33-2.15-5.27-2.15-8.8,0-3.27.73-6.03,2.2-8.3,1.47-2.27,3.53-4.07,6.2-5.4,2.67-1.33,9.23-3.1,14.59-3.1s10.63,1.07,12.86,1.8c2.23.73,4.1,1.68,5.6,2.85,1.5,1.17,2.63,2.5,3.4,4,.77,1.5,1.15,3.12,1.15,4.85s-.38,2.98-1.15,3.95c-.77.97-1.8,1.63-3.1,2-1.3.37-2.75.55-4.35.55,0-2.67-.35-5.12-1.05-7.35-.7-2.23-2.03-4.05-4-5.45-1.97-1.4-4.82-2.1-8.55-2.1-4.8,0-8.22,1.08-10.25,3.25-2.03,2.17-3.05,5.22-3.05,9.15,0,3.13.7,5.87,2.1,8.2,1.4,2.33,3.28,4.13,5.65,5.4,2.37,1.27,5.02,1.9,7.95,1.9h8.5v5.1h-8.5c-5.6,0-9.85,1.27-12.75,3.8-2.9,2.53-4.35,5.9-4.35,10.1s.67,7.03,2,9.1c1.33,2.07,3.18,3.5,5.55,4.3,2.37.8,5.12,1.33,8.25,1.6,2.47.2,4.92.5,7.35.9,2.43.4,4.67,1.05,6.7,1.95,2.03.9,3.65,2.15,4.85,3.75,1.2,1.6,1.8,3.67,1.8,6.2,0,3.13-.87,5.53-2.6,7.2-1.73,1.67-3.92,2.82-6.55,3.45-2.63.63-5.22.95-7.75.95-2.67,0-5.1-.22-7.3-.65-2.2-.43-4.3-.87-6.3-1.3-2-.43-4-.65-6-.65s-3.33.45-4.2,1.35c-.87.9-1.53,2.02-2,3.35-1.13-.2-2.13-.57-3-1.1Z"/></svg>