<?xml version="1.0" encoding="UTF-8"?><svg xmlns="http://www.w3.org/2000/svg" width="100" height="100" viewBox="0 0 100 100"><defs><style>.cls-1{fill:#fff;}</style></defs><path class="cls-1" d="M66.15,8.45c-3.57-3.23-8.92-4.85-16.05-4.85s-12.35,1.83-16.05,5.5c-3.7,3.67-4.85,9.96-4.85,16.69v38.81c0,2.07-.37,3.62-1.1,4.65-.73,1.03-1.72,1.72-2.95,2.05-1.23.33-2.62.5-4.15.5h-1.3v4.2h28.4v-4.2h-1.3c-1.47,0-2.83-.17-4.1-.5-1.27-.33-2.27-1.02-3-2.05-.73-1.03-1.1-2.58-1.1-4.65v-23.4h9.9c5.07,0,9.3-.72,12.7-2.15,3.4-1.43,5.97-3.53,7.7-6.3,1.73-2.77,2.6-6.12,2.6-10.05,0-6.27-1.78-11.02-5.35-14.25ZM59.65,30.3c-1.17,2.13-2.8,3.73-4.9,4.8-2.1,1.07-4.55,1.6-7.35,1.6h-8.8v-10.8c0-4.27.4-7.7,1.2-10.3.8-2.6,2.05-4.48,3.75-5.65,1.7-1.17,3.88-1.75,6.55-1.75,3.93,0,6.8,1.22,8.6,3.65,1.8,2.43,2.7,5.95,2.7,10.55,0,3.13-.58,5.77-1.75,7.9Z"/></svg>