<?xml version="1.0" encoding="UTF-8"?><svg xmlns="http://www.w3.org/2000/svg" width="100" height="100" viewBox="0 0 100 100"><defs><style>.cls-1{fill:#fff;}</style></defs><path class="cls-1" d="M65.78,32.86c-5.13,0-9.13-1.42-12-4.25-2.87-2.83-4.3-7.08-4.3-12.75s1.38-9.98,4.15-12.75c2.77-2.77,6.88-4.15,12.35-4.15,5,0,8.95,1.38,11.85,4.15,2.9,2.77,4.35,7.02,4.35,12.75s-1.4,9.92-4.2,12.75c-2.8,2.83-6.87,4.25-12.2,4.25ZM65.88,28.86c2.8,0,4.78-1.1,5.95-3.3,1.17-2.2,1.75-5.43,1.75-9.7s-.6-7.45-1.8-9.55c-1.2-2.1-3.2-3.15-6-3.15s-4.77,1.05-5.9,3.15c-1.13,2.1-1.7,5.28-1.7,9.55s.57,7.5,1.7,9.7c1.13,2.2,3.13,3.3,6,3.3Z"/><path class="cls-1" d="M75.33,71.8c-1.53,0-2.9-.17-4.1-.5-1.2-.33-2.17-1.02-2.9-2.05-.73-1.03-1.1-2.58-1.1-4.65v-6.8c0-4.27-.63-7.85-1.9-10.75-1.27-2.9-3.02-4.94-5.51-6.66-2.37-1.64-5.77-3.14-9.39-3.19h-9.27c.49-.34.95-.7,1.36-1.1,2-1.93,3-4.43,3-7.5,0-2.47-.65-4.5-1.95-6.1s-2.83-2.95-4.6-4.05c-1.77-1.1-3.42-2.05-4.95-2.85-1.93-1.13-3.65-2.25-5.15-3.35s-2.25-2.55-2.25-4.35c0-.4.07-.87.2-1.4.13-.53.33-1.1.6-1.7-.47-.4-1.04-.72-1.7-.95-.67-.23-1.37-.35-2.1-.35-1.73,0-3.13.48-4.2,1.45-1.07.97-1.6,2.25-1.6,3.85,0,1.73.4,3.3,1.2,4.7s1.87,2.63,3.2,3.7c1.33,1.07,2.73,2.03,4.2,2.9,1.4.8,2.77,1.62,4.1,2.45,1.33.83,2.42,1.82,3.25,2.95.83,1.13,1.25,2.53,1.25,4.2s-.43,3.15-1.3,4.25c-.87,1.1-2.2,1.92-4,2.45-1.8.53-4.13.8-7,.8h-4.5v5.5h32.21c1.47,0,2.77.45,3.9,1.35,1.13.9,2,2.47,2.6,4.7.6,2.23.9,5.38.9,9.45v6.9c0,1.93-.38,3.38-1.15,4.35-.77.97-1.77,1.6-3,1.9-1.23.3-2.58.45-4.05.45h-2.8v4.2h28.9v-4.2h-.4Z"/></svg>