<?xml version="1.0" encoding="UTF-8"?><svg xmlns="http://www.w3.org/2000/svg" width="100" height="100" viewBox="0 0 100 100"><defs><style>.cls-1{fill:#fff;}</style></defs><path class="cls-1" d="M75,6.35c-2.83-1.9-6.55-2.85-11.15-2.85-2,0-3.92.27-5.75.8-1.83.53-3.42,1.4-4.75,2.6-1.33,1.2-2.27,2.8-2.8,4.8h-.4c-.53-2-1.45-3.6-2.75-4.8-1.3-1.2-2.85-2.07-4.65-2.6-1.8-.53-3.67-.8-5.6-.8-3,0-5.75.6-8.25,1.8s-4.48,2.98-5.95,5.35c-1.47,2.37-2.2,5.35-2.2,8.95,0,4.4,2.25,11.62,3.86,15.54,3.28,7.96,8.26,15.49,8.26,15.49l6.83,10.97c1.4,2.2,2.3,3.72,2.7,4.55.4.83.6,1.62.6,2.35,0,1.07-.5,1.88-1.5,2.45-1,.57-2.5.85-4.5.85h-.5v4.2h27v-4.2h-1.3c-.8,0-1.63-.17-2.5-.5-.87-.33-1.75-.9-2.65-1.7-.9-.8-1.85-1.83-2.85-3.1,0,0-12.68-20.37-14.1-22.68-4.21-6.85-6.7-15.36-7.35-17.02s-.92-3.3-1.15-4.9c-.23-1.6-.35-3.2-.35-4.8,0-2.73.6-4.95,1.8-6.65,1.2-1.7,3.03-2.55,5.5-2.55,1.73,0,3.12.43,4.15,1.3,1.03.87,1.78,1.98,2.25,3.35.47,1.37.7,2.78.7,4.25v3.5h9.4v-3.4c0-1.53.2-2.98.6-4.35.4-1.37,1.1-2.5,2.1-3.4,1-.9,2.43-1.35,4.3-1.35,2.13,0,3.83.62,5.1,1.85,1.27,1.23,1.9,3.15,1.9,5.75,0,1.47-.12,2.75-.35,3.85-.23,1.1-.45,1.92-.65,2.45.6.2,1.22.35,1.85.45.63.1,1.35.15,2.15.15,2.13,0,3.87-.68,5.2-2.05,1.33-1.37,2-3.28,2-5.75,0-3.53-1.42-6.25-4.25-8.15Z"/></svg>