<?xml version="1.0" encoding="UTF-8"?><svg xmlns="http://www.w3.org/2000/svg" width="100" height="100" viewBox="0 0 100 100"><defs><style>.cls-1{fill:#444;}</style></defs><path class="cls-1" d="M58.15,77c-5.13,0-9.13-1.42-12-4.25-2.87-2.83-4.3-7.08-4.3-12.75s1.38-9.98,4.15-12.75c2.77-2.77,6.88-4.15,12.35-4.15,5,0,8.95,1.38,11.85,4.15,2.9,2.77,4.35,7.02,4.35,12.75s-1.4,9.92-4.2,12.75c-2.8,2.83-6.87,4.25-12.2,4.25ZM58.26,73c2.8,0,4.78-1.1,5.95-3.3,1.17-2.2,1.75-5.43,1.75-9.7s-.6-7.45-1.8-9.55c-1.2-2.1-3.2-3.15-6-3.15s-4.77,1.05-5.9,3.15c-1.13,2.1-1.7,5.28-1.7,9.55s.57,7.5,1.7,9.7c1.13,2.2,3.13,3.3,6,3.3Z"/><path class="cls-1" d="M65.9,8.45c-3.57-3.23-8.92-4.85-16.05-4.85s-12.35,1.83-16.05,5.5c-3.7,3.67-4.85,9.96-4.85,16.69v38.81c0,2.07-.37,3.62-1.1,4.65-.73,1.03-1.72,1.72-2.95,2.05-1.23.33-2.62.5-4.15.5h-1.3v4.2h18.9v-34.8h9.9c5.07,0,9.3-.72,12.7-2.15,3.4-1.43,5.97-3.53,7.7-6.3,1.73-2.77,2.6-6.12,2.6-10.05,0-6.27-1.78-11.02-5.35-14.25ZM59.4,30.3c-1.17,2.13-2.8,3.73-4.9,4.8-2.1,1.07-4.55,1.6-7.35,1.6h-8.8v-10.8c0-4.27.4-7.7,1.2-10.3.8-2.6,2.05-4.48,3.75-5.65,1.7-1.17,3.88-1.75,6.55-1.75,3.93,0,6.8,1.22,8.6,3.65,1.8,2.43,2.7,5.95,2.7,10.55,0,3.13-.58,5.77-1.75,7.9Z"/></svg>