<?xml version="1.0" encoding="UTF-8"?><svg xmlns="http://www.w3.org/2000/svg" width="100" height="100" viewBox="0 0 100 100"><defs><style>.cls-1{fill:#fff;}</style></defs><path class="cls-1" d="M55.95,36.9c4.4,1,8.03,2.4,10.9,4.2,2.87,1.8,5.02,4.04,6.45,6.7,1.43,2.67,2.15,5.83,2.15,9.5s-1.03,7.18-3.1,10.15c-2.07,2.97-5.07,5.3-9,7-3.93,1.7-8.7,2.55-14.3,2.55s-10.02-.67-13.65-2c-3.63-1.33-6.35-3.12-8.15-5.35-1.8-2.23-2.7-4.72-2.7-7.45,0-1.53.42-2.78,1.25-3.75.83-.97,1.93-1.67,3.3-2.1,1.37-.43,2.88-.65,4.55-.65,0,3.93.55,7.12,1.65,9.55,1.1,2.43,2.78,4.2,5.05,5.3,2.27,1.1,5.07,1.65,8.4,1.65s6.2-.58,8.6-1.75c2.4-1.17,4.23-2.87,5.5-5.1,1.27-2.23,1.9-4.95,1.9-8.15,0-5.07-1.43-8.9-4.3-11.5-2.87-2.6-6.97-4.63-12.3-6.1l-21.5,8.5-1.7-7.1,16.1-3.7v-.4c-3.47-1.27-6.23-2.67-8.3-4.2-2.07-1.53-3.55-3.32-4.45-5.35-.9-2.03-1.35-4.42-1.35-7.15,0-1.8.38-3.68,1.15-5.65.77-1.97,2.03-3.78,3.8-5.45,1.77-1.67,4.12-3.02,7.05-4.05,2.93-1.03,6.6-1.55,11-1.55,5.27,0,9.55.72,12.85,2.15,3.3,1.43,5.75,3.38,7.35,5.85,1.6,2.47,2.4,5.23,2.4,8.3,0,2.87-.6,5.38-1.8,7.55-1.2,2.17-3.03,4-5.5,5.5-2.47,1.5-5.57,2.75-9.3,3.75v.3ZM36.75,20.2c0,2.27.35,4.3,1.05,6.1.7,1.8,1.95,3.38,3.75,4.75,1.8,1.37,4.37,2.58,7.7,3.65,3.27-1.07,5.87-2.28,7.8-3.65,1.93-1.37,3.35-2.98,4.25-4.85.9-1.87,1.35-3.97,1.35-6.3,0-3.53-1.07-6.35-3.2-8.45-2.13-2.1-5.33-3.15-9.6-3.15-2.47,0-4.55.33-6.25,1-1.7.67-3.05,1.57-4.05,2.7-1,1.13-1.72,2.42-2.15,3.85-.43,1.43-.65,2.88-.65,4.35Z"/></svg>