<?xml version="1.0" encoding="UTF-8"?><svg xmlns="http://www.w3.org/2000/svg" width="100" height="100" viewBox="0 0 100 100"><defs><style>.cls-1{fill:#fff;}</style></defs><path class="cls-1" d="M71.31,13.55c-2.03-3.23-4.87-5.72-8.5-7.45s-7.85-2.6-12.65-2.6-9.33.83-13,2.5c-3.66,1.67-6.5,4.13-8.5,7.4-2,3.27-3,7.23-3,11.9,0,1.93.15,3.74.6,5.4,1.66,6.06,4.43,9.25,7.24,12.06s7.59,5.47,9.96,6.51c3.4,1.5,9.95,2.85,11.49,2.89l-12.64,15.15c-1.27,1.47-2.6,2.58-4,3.35-1.4.77-2.9,1.15-4.5,1.15h-.5v4.2h3.4c2.94,0,5.28-.18,7.05-.55,1.77-.37,3.27-1.02,4.5-1.95,1.23-.93,2.55-2.27,3.95-4l13.2-16.6v-3.21c-3.74-.26-6.87-.46-9.7-1-4.13-.79-6.71-2.05-7.6-2.79h1.75c5,0,9.33-.8,13-2.4,3.67-1.6,6.5-3.97,8.5-7.1s3-6.97,3-11.5-1.02-8.12-3.05-11.35ZM62.36,33.35c-.86,2.3-2.28,4.05-4.25,5.25s-4.65,1.8-8.05,1.8-6-.57-8-1.7c-2-1.13-3.45-2.85-4.35-5.15-.9-2.3-1.35-5.18-1.35-8.65s.42-6.3,1.25-8.7c.83-2.4,2.23-4.22,4.2-5.45,1.97-1.23,4.69-1.85,8.15-1.85s6.1.62,8.1,1.85c2,1.23,3.44,3.03,4.3,5.4.87,2.37,1.3,5.28,1.3,8.75s-.43,6.15-1.3,8.45Z"/><path class="cls-1" d="M25.64,48.55v5.36l48.7,22.09v-5.36l-48.7-22.09Z"/></svg>