<?xml version="1.0" encoding="UTF-8"?><svg xmlns="http://www.w3.org/2000/svg" width="100" height="100" viewBox="0 0 100 100"><defs><style>.cls-1{fill:#fff;}</style></defs><path class="cls-1" d="M81.25,71.8c-1.47,0-2.8-.15-4-.45-1.2-.3-2.17-.93-2.9-1.9-.72-.95-1.08-2.38-1.1-4.27,0-.1,0-.18,0-.28V26.6c0-5.2-1.03-9.5-3.1-12.9-2.07-3.4-5.03-5.93-8.9-7.6-3.87-1.67-8.47-2.5-13.8-2.5-5.6,0-10.32.95-14.15,2.85-3.83,1.9-6.73,4.57-8.7,8-1.97,3.43-2.95,7.48-2.95,12.15v38c0,2.07-.37,3.62-1.1,4.65-.73,1.03-1.72,1.72-2.95,2.05-1.23.33-2.62.5-4.15.5h-.8v4.2h37.7v-4.2h-.5c-1.47,0-2.8-.15-4-.45-1.2-.3-2.17-.93-2.9-1.9-.73-.97-1.1-2.42-1.1-4.35V26.6c0-3.74.03-6.8,1.91-10.7,1.72-3.6,4.4-6.57,9-6.57,2.59,0,5.07,1.89,6.29,3.13,2.73,2.77,4.1,6.92,4.1,12.45v51.1h18.6v-4.2h-.5ZM39.7,14.45c-1.97,3.43-2.95,7.48-2.95,12.15v40.7c0,2.55-1.28,3.06-2.27,3.06-1.35,0-2.15-.7-2.38-1.77-.23-1.07-.35-2.63-.35-4.7V25.3c0-3.4.58-6.37,1.75-8.9,1.17-2.53,2.92-4.52,5.25-5.95,1.78-1.09,3.92-1.77,6.4-2.03-2.26,1.64-4.08,3.65-5.45,6.03Z"/></svg>