<?xml version="1.0" encoding="UTF-8"?><svg xmlns="http://www.w3.org/2000/svg" width="100" height="100" viewBox="0 0 100 100"><defs><style>.cls-1{fill:#fff;}</style></defs><path class="cls-1" d="M49.1,3.6c4.53,0,8.58.92,12.15,2.75,3.57,1.83,6.4,4.7,8.5,8.6,2.1,3.9,3.15,8.98,3.15,15.25,0,5.8-.93,11.18-2.8,16.15-1.87,4.97-4.47,9.45-7.8,13.45-3.33,4-7.2,7.45-11.6,10.35-4.4,2.9-9.17,5.18-14.3,6.85v-5.4c3.2-1.2,6.3-3.03,9.3-5.5,3-2.46,5.72-5.48,8.15-9.05,2.43-3.57,4.37-7.65,5.8-12.25,1.43-4.6,2.15-9.63,2.15-15.1,0-4.8-.52-8.73-1.55-11.8-1.03-3.07-2.5-5.33-4.4-6.8-1.9-1.46-4.15-2.2-6.75-2.2-2.33,0-4.37.7-6.1,2.1-1.73,1.4-3.05,3.42-3.95,6.05-.9,2.63-1.35,5.82-1.35,9.55s.45,6.65,1.35,8.95,2.15,3.97,3.75,5c1.6,1.03,3.47,1.55,5.6,1.55,1.33,0,2.55-.13,3.65-.4,1.1-.27,2.12-.67,3.05-1.2.2.27.33.53.4.8.07.27.1.57.1.9,0,1.47-.9,2.8-2.7,4-1.8,1.2-4.13,1.8-7,1.8-3.53,0-6.72-.75-9.55-2.25-2.83-1.5-5.08-3.77-6.75-6.8-1.67-3.03-2.5-6.82-2.5-11.35,0-4.8.92-9,2.75-12.6,1.83-3.6,4.4-6.4,7.7-8.4,3.3-2,7.15-3,11.55-3Z"/></svg>