<svg xmlns="http://www.w3.org/2000/svg" viewBox="0 0 225 600"><defs><style>.a{fill:#444;}</style></defs><title>aw-c-r</title><path class="a" d="M132.32,468.07V452.92a25,25,0,0,1,50,0V468h0a25,25,0,0,1-50,.1m-25,.06a50,50,0,0,0,100-.21v-15a50,50,0,0,0-100,0v15.21"/><path class="a" d="M69.82,521.75h12.5a25,25,0,0,1,0,50h-25l12.5,12.5-12.5,12.5h25a50,50,0,0,0,0-100H69.82l-12.5,12.5Z"/><path class="a" d="M100,135.42a25,25,0,0,1,25-25H225L86.67,50C35.33,38.25,0,55.19,0,110.42v150a124.64,124.64,0,0,0,36.61,88.39L72,384.16a50,50,0,0,0,70.71-70.71l-35.36-35.36A24.92,24.92,0,0,1,100,260.42Zm25.11,195.82a25,25,0,0,1-35.43,35.28h0L79,355.88a25,25,0,1,1,35.35-35.36l10.72,10.72M51.36,201.41v-6.67a15,15,0,0,1,30,0v6.67a15.19,15.19,0,0,0-30,0Zm-30,42.45v-6.67a15,15,0,0,1,30,0v6.67a15.19,15.19,0,0,0-30,0Zm17.32,58.7L35.8,291.81a25,25,0,1,1,48.3-12.94L87,289.61a25.31,25.31,0,0,0-48.3,12.95Z"/><path class="a" d="M166.34,489.77a12.5,12.5,0,1,0-17.67-17.68L85,535.73a12.5,12.5,0,0,0,17.67,17.68Z"/><path class="a" d="M146.68,444.36a12.5,12.5,0,0,0,21.65-12.5l-45-77.94a12.5,12.5,0,1,0-21.65,12.5Z"/></svg>