<svg xmlns="http://www.w3.org/2000/svg" viewBox="0 0 225.84 594.5"><defs><style>.a{fill:#444;}</style></defs><title>aw-c-r</title><path class="a" d="M133.32,467.33V452.17a25,25,0,0,1,50,0v15.05h0a25,25,0,0,1-50,.11m-25,.05a50,50,0,0,0,100-.21v-15a50,50,0,0,0-100,0v15.21"/><path class="a" d="M70.82,521h12.5a25,25,0,0,1,0,50h-25l12.5,12.5L58.32,596h25a50,50,0,0,0,0-100H70.82l-12.5,12.5Z"/><path class="a" d="M101,134.67a25,25,0,0,1,25-25H226L87.67,49.25C36.33,37.5,1,54.44,1,109.67v150a124.61,124.61,0,0,0,36.61,88.39L73,383.41a50,50,0,0,0,70.71-70.71l-35.36-35.35A25,25,0,0,1,101,259.67Zm25.11,195.82a25,25,0,0,1-35.43,35.28h0L80,355.13a25,25,0,1,1,35.35-35.36l10.72,10.72M52.36,200.67V194a15,15,0,0,1,30,0v6.68a15.18,15.18,0,0,0-30,0Zm-30,42.44v-6.67a15,15,0,0,1,30,0v6.67a15.19,15.19,0,0,0-30,0Zm17.32,58.7L36.8,291.06a25,25,0,0,1,48.3-12.94L88,288.87a25.31,25.31,0,0,0-48.3,12.94Z"/><path class="a" d="M167.34,489a12.5,12.5,0,1,0-17.67-17.68L86,535a12.5,12.5,0,0,0,17.67,17.68Z"/><path class="a" d="M147.68,443.61a12.5,12.5,0,1,0,21.65-12.5l-45-77.94a12.5,12.5,0,1,0-21.65,12.5Z"/></svg>