<svg xmlns="http://www.w3.org/2000/svg" viewBox="0 0 225 600"><defs><style>.a{fill:#444;}</style></defs><title>aw-c-l</title><path class="a" d="M155.18,571.75h-12.5a25,25,0,0,1,0-50h25l-12.5-12.5,12.5-12.5h-25a50,50,0,0,0,0,100h12.5l12.5-12.5Z"/><path class="a" d="M45.89,468.07V452.92a25,25,0,0,1,50,0V468h0a25,25,0,0,1-50,.1m-25,.06a50,50,0,0,0,100-.21v-15a50,50,0,0,0-100,0v15.21"/><path class="a" d="M125,10.42H91.46a22.48,22.48,0,0,0-32.92,0H0v10l75,40-75,40v10H100a25,25,0,0,1,25,25v125a24.92,24.92,0,0,1-7.32,17.67L82.32,313.45A50,50,0,0,0,153,384.16s72-89.23,72-123.74v-150A100,100,0,0,0,125,10.42Zm10.24,356.17A25,25,0,0,1,100,331.17h0l10.65-10.65A25,25,0,0,1,146,355.88L135.24,366.6M63.82,31.32A12.49,12.49,0,1,1,75,38.25,12.42,12.42,0,0,1,63.82,31.32ZM195.67,267.66l-2.88,10.75a25,25,0,0,1-48.3-12.94l2.88-10.75a25.31,25.31,0,0,0,48.3,12.94Zm-22-55.86v6.67a15,15,0,1,1-30,0V211.8a15.19,15.19,0,0,0,30,0Zm30-42.45V176a15,15,0,0,1-30,0v-6.68a15.18,15.18,0,0,0,30,0Z"/><path class="a" d="M78.32,444.36a12.5,12.5,0,0,1-21.65-12.5l45-77.94a12.5,12.5,0,1,1,21.65,12.5Z"/><path class="a" d="M58.66,489.77a12.5,12.5,0,1,1,17.67-17.68L140,535.73a12.5,12.5,0,0,1-17.67,17.68Z"/></svg>