<svg xmlns="http://www.w3.org/2000/svg" viewBox="0 0 700 125"><defs><style>.a{fill:#444;}</style></defs><title>aw-s-l</title><path class="a" d="M684.56,91.09h-12.5a25,25,0,0,1,0-50h25l-12.5-12.5,12.5-12.5h-25a50,50,0,0,0,0,100h12.5l12.5-12.5Z"/><path class="a" d="M557.6,91.09H542.44a25,25,0,0,1,0-50h15a25,25,0,0,1,.11,50m0,25a50,50,0,0,0-.21-100h-15a50,50,0,0,0,0,100h15.21"/><path class="a" d="M530.44,53.59a12.5,12.5,0,0,1,0,25h-90a12.5,12.5,0,0,1,0-25Z"/><path class="a" d="M570.44,78.59a12.5,12.5,0,0,1,0-25h90a12.5,12.5,0,0,1,0,25Z"/><path class="a" d="M477.94,66.09a50,50,0,0,1-50,50H2.94v-10l75-40-75-40v-10H61.48a22.48,22.48,0,0,1,32.92,0H427.94A50,50,0,0,1,477.94,66.09Zm-131.63,0a25.31,25.31,0,0,1-21.37,25h11.12a25,25,0,0,0,0-50H324.94A25.31,25.31,0,0,1,346.31,66.09Zm-50.6,15a15.19,15.19,0,0,1-12.83,15h6.68a15,15,0,0,0,0-30h-6.68A15.18,15.18,0,0,1,295.71,81.09Zm-42.45-30a15.19,15.19,0,0,1-12.82,15h6.67a15,15,0,0,0,0-30h-6.67A15.18,15.18,0,0,1,253.26,51.09Zm-175.32-10a12.53,12.53,0,1,0-11.18-6.93A12.5,12.5,0,0,0,77.94,41.08Zm334.84,50h15.16a25,25,0,0,0,0-50H412.89a25,25,0,0,0-.11,50"/></svg>