<svg xmlns="http://www.w3.org/2000/svg" viewBox="0 0 700 125"><defs><style>.a,.b{fill:#444;}.b{fill-rule:evenodd;}</style></defs><title>aw-s-r</title><path class="a" d="M20,41.07h12.5a25,25,0,0,1,0,50h-25L20,103.57l-12.5,12.5h25a50,50,0,0,0,0-100H20L7.46,28.57Z"/><path class="a" d="M146.92,91.06a25,25,0,0,1,.11-50h15.05a25,25,0,1,1,0,50H146.92m0,25h15.21a50,50,0,0,0,0-100h-15a50,50,0,0,0-.21,100"/><path class="a" d="M174.08,53.57a12.5,12.5,0,0,0,0,25h90a12.5,12.5,0,1,0,0-25Z"/><path class="a" d="M134.08,78.57a12.5,12.5,0,1,0,0-25h-90a12.5,12.5,0,0,0,0,25Z"/><path class="b" d="M226.58,66.1a50,50,0,0,0,50,50H693.39l-191.81-75v0c-47.8-18.9-87.55-25-125-25h-100A50,50,0,0,0,226.58,66.1Zm120.27,0a25.31,25.31,0,0,0,21.37,25H357.1a25,25,0,0,1,0-50h11.12A25.3,25.3,0,0,0,346.85,66.11Zm63.43,0H403.6a15,15,0,1,1,0-30h6.68a15.18,15.18,0,0,0,0,30Zm42.44,30h-6.67a15,15,0,1,1,0-30h6.67a15.19,15.19,0,0,0,0,30Zm-160.32-5c13.15-.09,24.25-11.24,24.25-25a25.06,25.06,0,0,0-25.25-25V41H276.65a25,25,0,1,0,0,50H292.4Z"/></svg>