<svg xmlns="http://www.w3.org/2000/svg" viewBox="0 0 691.88 105.44"><defs><style>.a,.b{fill:#444;}.b{fill-rule:evenodd;}</style></defs><title>aw-s-r</title><path class="a" d="M16.43,30.82h12.5a25,25,0,0,1,0,50h-25l12.5,12.5-12.5,12.5h25a50,50,0,0,0,0-100H16.43L3.93,18.32Z"/><path class="a" d="M143.39,80.82a25,25,0,0,1,.11-50h15.05a25,25,0,0,1,0,50H143.39m0,25h15.21a50,50,0,0,0,0-100h-15a50,50,0,0,0-25,93.29,49.73,49.73,0,0,0,24.79,6.71"/><path class="a" d="M170.55,43.32a12.5,12.5,0,0,0,0,25h90a12.5,12.5,0,1,0,0-25Z"/><path class="a" d="M130.55,68.32a12.5,12.5,0,1,0,0-25h-90a12.5,12.5,0,0,0,0,25Z"/><path class="b" d="M223.05,55.86a50,50,0,0,0,50,50h416.8l-191.8-75h0c-47.8-18.9-87.55-25-125-25h-100A50,50,0,0,0,223.05,55.86Zm120.27,0a25.31,25.31,0,0,0,21.37,25H353.57a25,25,0,0,1,0-50h11.12A25.31,25.31,0,0,0,343.32,55.86Zm63.42,0h-6.67a15,15,0,0,1,0-30h6.67a15.19,15.19,0,0,0,0,30Zm42.45,30h-6.68a15,15,0,0,1,0-30h6.68a15.18,15.18,0,0,0,0,30Zm-160.32-5c13.14-.08,24.25-11.24,24.25-25a25.06,25.06,0,0,0-25.25-25v-.07H273.12a25,25,0,1,0,0,50h15.75Z"/></svg>