<svg xmlns="http://www.w3.org/2000/svg" viewBox="0 0 693.58 108.14"><defs><style>.a{fill:#444;}</style></defs><title>aw-s-l</title><path class="a" d="M681.65,82.21h-12.5a25,25,0,0,1,0-50h25l-12.5-12.5,12.5-12.5h-25a50,50,0,0,0,0,100h12.5l12.5-12.5Z"/><path class="a" d="M554.69,82.21H539.53a25,25,0,0,1,0-50h15.05a25,25,0,0,1,.11,50m0,25a50,50,0,0,0-.21-100h-15a50,50,0,0,0,0,100h15.21"/><path class="a" d="M527.53,44.71a12.5,12.5,0,1,1,0,25h-90a12.5,12.5,0,0,1,0-25Z"/><path class="a" d="M567.53,69.71a12.5,12.5,0,0,1,0-25h90a12.5,12.5,0,1,1,0,25Z"/><path class="a" d="M475,57.21a50,50,0,0,1-50,50H0v-10l75-40L0,17.2V7.2H58.57a22.5,22.5,0,0,1,32.92,0H425A50,50,0,0,1,475,57.21Zm-131.63,0a25.31,25.31,0,0,1-21.37,25h11.12a25,25,0,0,0,0-50H322A25.31,25.31,0,0,1,343.4,57.21Zm-50.6,15a15.19,15.19,0,0,1-12.83,15h6.68a15,15,0,1,0,0-30H280A15.19,15.19,0,0,1,292.8,72.21Zm-42.45-30a15.19,15.19,0,0,1-12.82,15h6.67a15,15,0,0,0,0-30h-6.67A15.19,15.19,0,0,1,250.35,42.21ZM75,32.2a12.53,12.53,0,1,0-11.18-6.93A12.5,12.5,0,0,0,75,32.2Zm334.84,50H425a25,25,0,1,0,0-50H410a25,25,0,0,0-.11,50"/></svg>