<svg xmlns="http://www.w3.org/2000/svg" viewBox="0 0 325 625"><defs><style>.a{fill:#444;}</style></defs><title>aw-u-b</title><path class="a" d="M185.21,172.62v15.16a25,25,0,0,1-50,0V172.72h0a25,25,0,0,1,50-.1m25-.05a50,50,0,0,0-100,.21v15a50,50,0,0,0,100,0V172.57"/><path class="a" d="M185.21,43.28v12.5a25,25,0,0,1-50,0v-25l-12.5,12.5-12.5-12.5v25a50,50,0,0,0,100,0V43.28l-12.5-12.5Z"/><path class="a" d="M217.53,505.28a25,25,0,0,1-25,25h-100l138.33,60.41c51.33,11.75,86.67-5.19,86.67-60.41v-150a124.61,124.61,0,0,0-36.61-88.39l-35.36-35.36a50,50,0,1,0-70.71,70.71l35.36,35.36a24.92,24.92,0,0,1,7.32,17.68ZM192.42,309.45a25,25,0,0,1,35.42-35.28h0l10.65,10.65a25,25,0,0,1-35.36,35.35l-10.72-10.72m73.75,129.83V446a15,15,0,0,1-30,0v-6.67a15.19,15.19,0,0,0,30,0Zm30-42.45v6.68a15,15,0,0,1-30,0v-6.68a15.18,15.18,0,0,0,30,0Zm-17.31-58.69,2.88,10.74a25,25,0,0,1-48.3,12.94l-2.88-10.74a25.31,25.31,0,0,0,48.3-12.94Z"/><path class="a" d="M147.71,160.78a12.5,12.5,0,0,0,25,0v-90a12.5,12.5,0,0,0-25,0Z"/><path class="a" d="M170.85,196.33a12.5,12.5,0,0,0-21.65,12.5l45,77.95a12.5,12.5,0,0,0,21.65-12.5Z"/></svg>