<svg xmlns="http://www.w3.org/2000/svg" viewBox="0 0 311.58 605.81"><defs><style>.a{fill:#444;}</style></defs><title>aw-u-t</title><path class="a" d="M178.61,594.5V582a25,25,0,0,0-50,0v25l-12.5-12.5L103.61,607V582a50,50,0,0,1,100,0v12.5L191.11,607Z"/><path class="a" d="M178.6,465.16a25,25,0,0,1-50-.11h0V450a25,25,0,0,1,50,0v15.16m25,0V450a50,50,0,0,0-100,0v15a50,50,0,0,0,100,.21"/><path class="a" d="M-.5,107.5v150a124.61,124.61,0,0,0,36.61,88.39l35.35,35.35a50,50,0,0,0,70.72-70.71l-35.36-35.35A25,25,0,0,1,99.5,257.5v-125a25,25,0,0,1,25-25h100v-10l-75-40,75-40V7.5H166A22.48,22.48,0,0,0,133,7.5H99.5A100,100,0,0,0-.5,107.5ZM89.25,363.68,78.54,353a25,25,0,1,1,35.35-35.35l10.65,10.64h0a25,25,0,0,1-35.27,35.43M149.5,35.33a12.53,12.53,0,1,1,11.18-6.93A12.49,12.49,0,0,1,149.5,35.33Zm-91,243.59a25.32,25.32,0,0,0,18.62-27.11L80,262.55a25,25,0,1,1-48.29,12.94l-2.88-10.74A25.32,25.32,0,0,0,58.51,278.92Zm7.35-57.21a15.19,15.19,0,0,0,15-12.83v6.68a15,15,0,0,1-30,0v-6.68A15.19,15.19,0,0,0,65.86,221.71Zm-30-42.45a15.19,15.19,0,0,0,15-12.82v6.67a15,15,0,0,1-30,0v-6.67A15.19,15.19,0,0,0,35.86,179.26Z"/><path class="a" d="M146.17,441.44a12.5,12.5,0,1,0,21.65-12.5l-45-77.94a12.5,12.5,0,1,0-21.65,12.5Z"/><path class="a" d="M166.11,477a12.5,12.5,0,0,0-25,0v90a12.5,12.5,0,0,0,25,0Z"/></svg>