<svg xmlns="http://www.w3.org/2000/svg" viewBox="0 0 313.04 564.61"><defs><style>.a{fill:#444;}</style></defs><title>aw-u-b</title><path class="a" d="M179.23,143v15.16a25,25,0,0,1-50,0v-15h0a25,25,0,0,1,50-.11m25,0a50,50,0,0,0-100,.21v15a50,50,0,0,0,100,0V143"/><path class="a" d="M179.23,13.67v12.5a25,25,0,0,1-50,0v-25l-12.5,12.5-12.5-12.5v25a50,50,0,0,0,100,0V13.67l-12.5-12.5Z"/><path class="a" d="M211.55,475.67a25,25,0,0,1-25,25h-100l138.33,60.42c51.33,11.75,86.67-5.19,86.67-60.42v-150a124.61,124.61,0,0,0-36.61-88.39l-35.36-35.35a50,50,0,0,0-70.71,70.71L204.23,333a24.92,24.92,0,0,1,7.32,17.67ZM186.44,279.85a25,25,0,0,1,35.42-35.28h0l10.65,10.64a25,25,0,0,1-35.36,35.36l-10.72-10.72m73.75,129.83v6.67a15,15,0,0,1-30,0v-6.67a15.19,15.19,0,0,0,30,0Zm30-42.45v6.67a15,15,0,0,1-30,0v-6.67a15.19,15.19,0,0,0,30,0Zm-17.31-58.7,2.88,10.75a25,25,0,0,1-48.3,12.94l-2.88-10.74a25.31,25.31,0,0,0,48.3-13Z"/><path class="a" d="M141.73,131.17a12.5,12.5,0,0,0,25,0v-90a12.5,12.5,0,1,0-25,0Z"/><path class="a" d="M164.87,166.73a12.5,12.5,0,1,0-21.65,12.5l45,77.94a12.5,12.5,0,1,0,21.65-12.5Z"/></svg>