<svg xmlns="http://www.w3.org/2000/svg" viewBox="0 0 500 593.5"><defs><style>.a{fill:#444;}</style></defs><title>antiwork</title><path class="a" d="M160.18,571.75h-12.5a25,25,0,0,1,0-50h25l-12.5-12.5,12.5-12.5h-25a50,50,0,0,0,0,100h12.5l12.5-12.5Z" transform="translate(-5 -3.25)"/><path class="a" d="M412.32,468.07V452.92a25,25,0,0,1,50,0V468h0a25,25,0,0,1-50,.1m-25,.06a50,50,0,0,0,100-.21v-15a50,50,0,0,0-100,0v15.21" transform="translate(-5 -3.25)"/><path class="a" d="M50.89,468.07V452.92a25,25,0,0,1,50,0V468h0a25,25,0,0,1-50,.1m-25,.06a50,50,0,0,0,100-.21v-15a50,50,0,0,0-100,0v15.21" transform="translate(-5 -3.25)"/><path class="a" d="M349.82,521.75h12.5a25,25,0,0,1,0,50h-25l12.5,12.5-12.5,12.5h25a50,50,0,0,0,0-100h-12.5l-12.5,12.5Z" transform="translate(-5 -3.25)"/><path class="a" d="M130,10.42H96.46a22.48,22.48,0,0,0-32.92,0H5v10l10,5.33,10.89,5.81L53.35,46.2,80,60.42l-46.85,25L5,100.42v10H105a25,25,0,0,1,25,25v125a24.92,24.92,0,0,1-7.32,17.67L87.32,313.45A50,50,0,0,0,158,384.16l35.36-35.35A124.64,124.64,0,0,0,230,260.42v-150A100,100,0,0,0,130,10.42Zm10.24,356.17A25,25,0,0,1,105,331.17h0l10.65-10.65A25,25,0,0,1,151,355.88L140.24,366.6M68.82,31.32A12.49,12.49,0,1,1,80,38.25,12.42,12.42,0,0,1,68.82,31.32ZM200.67,267.66l-2.88,10.75a25,25,0,0,1-48.3-12.94l2.88-10.75a25.31,25.31,0,0,0,48.3,12.94Zm-22-55.86v6.67a15,15,0,1,1-30,0V211.8a15.19,15.19,0,0,0,30,0Zm30-42.45V176a15,15,0,0,1-30,0v-6.68a15.18,15.18,0,0,0,30,0Z" transform="translate(-5 -3.25)"/><path class="a" d="M380,135.42a25,25,0,0,1,25-25H505L417.33,70.33,366.67,50C315.33,38.25,280,55.19,280,110.42v150a124.64,124.64,0,0,0,36.61,88.39L352,384.16a50,50,0,1,0,70.71-70.71l-35.36-35.36A24.92,24.92,0,0,1,380,260.42v-125Zm25.11,195.82a25,25,0,0,1-35.43,35.28h0L359,355.88a25,25,0,0,1,35.35-35.36l10.72,10.72M331.36,201.41v-6.67a15,15,0,0,1,30,0v6.67a15.19,15.19,0,0,0-30,0Zm-30,42.45v-6.67a15,15,0,1,1,30,0v6.67a15.19,15.19,0,0,0-30,0Zm17.32,58.7-2.88-10.75a25,25,0,1,1,48.3-12.94L367,289.61a25.31,25.31,0,0,0-48.3,12.95Z" transform="translate(-5 -3.25)"/><path class="a" d="M101.91,412.17,83.32,444.36a12.5,12.5,0,0,1-21.65-12.5l18.61-32.23,26.39-45.71a12.5,12.5,0,1,1,21.65,12.5Z" transform="translate(-5 -3.25)"/><path class="a" d="M89.94,516.05,63.66,489.77a12.5,12.5,0,1,1,17.67-17.68l26.32,26.32L145,535.73a12.5,12.5,0,0,1-17.67,17.68Z" transform="translate(-5 -3.25)"/><path class="a" d="M420.06,516.05l26.28-26.28a12.5,12.5,0,1,0-17.67-17.68l-26.32,26.32L365,535.73a12.5,12.5,0,0,0,17.67,17.68Z" transform="translate(-5 -3.25)"/><path class="a" d="M408.09,412.17l18.59,32.19a12.5,12.5,0,0,0,21.65-12.5l-18.61-32.23-26.39-45.71a12.5,12.5,0,1,0-21.65,12.5Z" transform="translate(-5 -3.25)"/></svg>