<svg xmlns="http://www.w3.org/2000/svg" viewBox="0 0 32 32"><defs><style>.a{fill:#444;}</style></defs><title>favicon</title><path class="a" d="M14.4,7.06v9.6a8,8,0,0,1-2.34,5.66L9.79,24.58a3.2,3.2,0,1,1-4.52-4.52l2.26-2.27A1.6,1.6,0,0,0,8,16.66v-8a1.6,1.6,0,0,0-1.6-1.6H0V6.42L4.8,3.86,0,1.3V.66H8A6.41,6.41,0,0,1,14.4,7.06Z"/><path class="a" d="M5,28.44a.8.8,0,0,1-1.39-.8l2.88-5a.81.81,0,0,1,1.1-.29.8.8,0,0,1,.29,1.09Z"/><path class="a" d="M24,8.67a1.6,1.6,0,0,1,1.6-1.6H32L23.15,3.2c-3.29-.75-5.55.33-5.55,3.87v9.6a8,8,0,0,0,2.34,5.65l2.27,2.27a3.2,3.2,0,0,0,4.52-4.53L24.47,17.8A1.6,1.6,0,0,1,24,16.67Z"/><path class="a" d="M27,28.44a.8.8,0,1,0,1.38-.8l-2.88-5a.8.8,0,0,0-1.38.8Z"/><path class="a" d="M2.54,30.39v-.83a1.67,1.67,0,1,1,3.33,0v1.66l.84-.83.83.83V29.56a3.26,3.26,0,0,0-.45-1.67,3.33,3.33,0,0,0-5.77,0,3.36,3.36,0,0,0-.45,1.67v.83l.84.83Z"/><path class="a" d="M26.47,30.51v-.84a1.67,1.67,0,0,1,3.33,0v1.67l.83-.83.84.83V29.67A3.33,3.33,0,0,0,25.25,28a3.22,3.22,0,0,0-.45,1.66v.84l.83.83Z"/></svg>